<?xml version="1.0" encoding="utf-8"?>
<!-- Generator: Adobe Illustrator 28.0.0, SVG Export Plug-In . SVG Version: 6.00 Build 0)  -->
<svg version="1.1" id="图层_1" xmlns="http://www.w3.org/2000/svg" xmlns:xlink="http://www.w3.org/1999/xlink" x="0px" y="0px"
	 viewBox="0 0 131.8 92.9" style="enable-background:new 0 0 131.8 92.9;" xml:space="preserve">
<style type="text/css">
	.st0{fill:#FFFFFF;}
</style>
<path class="st0" d="M84.4,62.2c-1.3,0-2.6-0.2-3.9-0.4c-2.5-0.4-4.9-1.1-7.2-2.1c-2-0.8-3.9-1.9-5.7-3.2c-1.2-0.9-2.4-1.8-3.4-2.9
	c-4.6-4.4-7.7-9.6-9-15.8c-1.9-9-0.2-17.3,5.1-24.9c2.6-3.6,5.8-6.6,9.7-8.8c3.3-1.9,6.8-3.1,10.6-3.7c0.9-0.1,1.7-0.3,2.7-0.3
	c0.4-0.1,0.8,0,1.2-0.1c0.4,0,0.7,0,1,0c-0.1,0.2,0,0.5,0,0.7c0,4.3,0,8.6,0,12.9c0,0.5-0.1,0.6-0.6,0.7c-1.4,0.1-2.7,0.2-4,0.7
	c-2,0.7-3.9,1.6-5.6,2.9c-2.8,2.2-4.7,5-5.8,8.3c-0.6,1.9-0.8,3.9-0.7,5.9c0.2,2,0.6,4,1.5,5.9c1.7,3.8,4.4,6.5,8.2,8.3
	c1.7,0.8,3.4,1.2,5.3,1.5c2.6,0.3,5.1,0,7.5-0.9c1.8-0.7,3.4-1.7,4.9-2.9c2-1.7,3.5-3.7,4.6-6.1c0.6-1.4,1.1-2.8,1.2-4.4
	c0.1-0.7,0.2-1.4,0.2-2.1c0-0.6,0.5-0.2,0.8-0.3c0.2,0.1,0.4,0.1,0.6,0.1c4.3,0,8.5,0,12.8,0c0.3,0.4,0.2,0.9,0.1,1.3
	c-0.1,2.7-0.5,5.3-1.3,7.9c-1.2,3.9-3.2,7.4-5.8,10.6c-3,3.6-6.6,6.5-10.9,8.5c-2.6,1.2-5.3,2.1-8.2,2.5c-1,0.2-2.1,0.2-3.2,0.3
	C86.3,62.2,85.4,62.2,84.4,62.2z"/>
<path class="st0" d="M45.1,0.1c2.1,0.3,4.1,0.6,6.1,1.2c4,1.2,7.6,3.1,10.8,5.6c0.4,0.3,0.5,0.5,0.1,0.9c-2.2,2.2-4,4.7-5.6,7.4
	c-0.6,1-1.1,2.1-1.5,3.2c-0.1,0.2-0.1,0.3-0.2,0.5c-0.2,0.3-0.4,0.4-0.7,0.1c-8-7.7-21.3-5.4-26.4,4.5c-5.2,10.2,1.1,22.1,11.7,24.1
	c5.5,1,10.4-0.4,14.6-4.2c0.5-0.4,0.5-0.5,0.8,0.2c1.7,4.2,4.2,7.9,7.4,11.2c0.2,0.2,0.3,0.3,0,0.5c-3.1,2.6-6.7,4.5-10.6,5.7
	c-1.8,0.6-3.7,0.9-5.6,1.1c-1.8,0.2-3.5,0.3-5.3,0.2c-1.4,0-2.7-0.2-4.1-0.5c-1.8-0.3-3.5-0.8-5.2-1.4c-2-0.7-3.8-1.7-5.6-2.8
	c-1.1-0.7-2.1-1.5-3.1-2.2c-0.4-0.3-0.7-0.6-1-0.9c-0.7-0.7-1.4-1.4-2.1-2.1c-1.3-1.5-2.5-3-3.5-4.7c-1-1.7-1.9-3.4-2.6-5.3
	c-0.6-1.6-1.1-3.3-1.4-5c-0.2-1.4-0.5-2.9-0.5-4.4c-0.1-1.2,0-2.3,0-3.5c0.1-3,0.7-5.9,1.7-8.7c1.3-3.8,3.3-7.2,6-10.2
	c2.9-3.3,6.4-5.9,10.4-7.7c2.7-1.2,5.5-2.1,8.5-2.4c0.5-0.1,1.1-0.1,1.7-0.2c0.5,0,0.9-0.1,1.4-0.1c0.8,0,1.5,0,2.3,0
	C44.1,0,44.6,0.1,45.1,0.1z"/>
<g>
	<path class="st0" d="M5,74l0.9,0.2c-0.2,0.7-0.5,1.2-1,1.6c-0.5,0.4-1,0.6-1.7,0.6c-0.7,0-1.3-0.1-1.7-0.4c-0.4-0.3-0.8-0.7-1-1.2
		c-0.2-0.5-0.3-1.1-0.3-1.7c0-0.7,0.1-1.3,0.4-1.8c0.3-0.5,0.6-0.9,1.1-1.1c0.5-0.3,1-0.4,1.6-0.4c0.6,0,1.2,0.2,1.6,0.5
		c0.4,0.3,0.7,0.8,0.9,1.4l-0.8,0.2c-0.2-0.5-0.4-0.8-0.7-1c-0.3-0.2-0.6-0.3-1.1-0.3c-0.5,0-0.9,0.1-1.2,0.4
		c-0.3,0.2-0.6,0.6-0.7,1C1.1,72.2,1,72.6,1,73c0,0.6,0.1,1,0.2,1.4c0.2,0.4,0.4,0.7,0.7,0.9c0.3,0.2,0.7,0.3,1.1,0.3
		c0.5,0,0.9-0.1,1.2-0.4C4.6,75,4.9,74.6,5,74z"/>
	<path class="st0" d="M6.9,76.3v-6.5h0.9v2.7h3.4v-2.7H12v6.5h-0.9v-3.1H7.8v3.1H6.9z"/>
	<path class="st0" d="M13.4,76.3v-6.5h4.7v0.8h-3.8v2h3.6v0.8h-3.6v2.2h4v0.8H13.4z"/>
	<path class="st0" d="M19.4,76.3v-6.5h0.9l3.4,5.1v-5.1h0.8v6.5h-0.9l-3.4-5.1v5.1H19.4z"/>
	<path class="st0" d="M29,73.8V73l2.7,0v2.4c-0.4,0.3-0.9,0.6-1.3,0.8c-0.4,0.2-0.9,0.3-1.4,0.3c-0.6,0-1.2-0.1-1.7-0.4
		c-0.5-0.3-0.9-0.7-1.2-1.2s-0.4-1.1-0.4-1.7c0-0.6,0.1-1.2,0.4-1.8c0.3-0.5,0.6-1,1.1-1.2c0.5-0.3,1.1-0.4,1.7-0.4
		c0.5,0,0.9,0.1,1.3,0.2c0.4,0.2,0.7,0.4,0.9,0.6c0.2,0.3,0.4,0.6,0.5,1.1l-0.8,0.2c-0.1-0.3-0.2-0.6-0.4-0.8
		c-0.1-0.2-0.4-0.3-0.6-0.5c-0.3-0.1-0.6-0.2-0.9-0.2c-0.4,0-0.7,0.1-1,0.2c-0.3,0.1-0.5,0.3-0.7,0.5c-0.2,0.2-0.3,0.4-0.4,0.6
		c-0.2,0.4-0.2,0.8-0.2,1.3c0,0.6,0.1,1.1,0.3,1.4c0.2,0.4,0.5,0.7,0.9,0.9c0.4,0.2,0.8,0.3,1.2,0.3c0.4,0,0.7-0.1,1.1-0.2
		c0.4-0.1,0.6-0.3,0.8-0.5v-1.2H29z"/>
	<path class="st0" d="M40.2,74l0.9,0.2c-0.2,0.7-0.5,1.2-1,1.6c-0.5,0.4-1,0.6-1.7,0.6c-0.7,0-1.3-0.1-1.7-0.4
		c-0.4-0.3-0.8-0.7-1-1.2c-0.2-0.5-0.3-1.1-0.3-1.7c0-0.7,0.1-1.3,0.4-1.8c0.3-0.5,0.6-0.9,1.1-1.1c0.5-0.3,1-0.4,1.6-0.4
		c0.6,0,1.2,0.2,1.6,0.5c0.4,0.3,0.7,0.8,0.9,1.4l-0.8,0.2c-0.2-0.5-0.4-0.8-0.7-1c-0.3-0.2-0.6-0.3-1.1-0.3c-0.5,0-0.9,0.1-1.2,0.4
		c-0.3,0.2-0.6,0.6-0.7,1c-0.1,0.4-0.2,0.8-0.2,1.2c0,0.6,0.1,1,0.2,1.4c0.2,0.4,0.4,0.7,0.7,0.9c0.3,0.2,0.7,0.3,1.1,0.3
		c0.5,0,0.9-0.1,1.2-0.4C39.8,75,40,74.6,40.2,74z"/>
	<path class="st0" d="M42.1,76.3v-6.5H43v2.7h3.4v-2.7h0.9v6.5h-0.9v-3.1H43v3.1H42.1z"/>
	<path class="st0" d="M48.8,76.3v-6.5h0.9v6.5H48.8z"/>
	<path class="st0" d="M57.9,69.8h0.9v3.7c0,0.7-0.1,1.2-0.2,1.6c-0.1,0.4-0.4,0.7-0.8,0.9c-0.4,0.2-0.9,0.4-1.5,0.4
		c-0.6,0-1.1-0.1-1.5-0.3c-0.4-0.2-0.7-0.5-0.8-0.9c-0.2-0.4-0.2-0.9-0.2-1.6v-3.7h0.9v3.7c0,0.6,0.1,1,0.2,1.2s0.3,0.5,0.5,0.6
		c0.3,0.1,0.6,0.2,0.9,0.2c0.6,0,1.1-0.1,1.3-0.4c0.3-0.3,0.4-0.8,0.4-1.6V69.8z"/>
	<path class="st0" d="M60.2,76.3v-6.5H61l3.4,5.1v-5.1h0.8v6.5h-0.9L61,71.2v5.1H60.2z"/>
	<path class="st0" d="M66.8,76.3v-6.5h0.9v6.5H66.8z"/>
	<path class="st0" d="M70.9,76.3v-5.7h-2.1v-0.8h5.1v0.8h-2.1v5.7H70.9z"/>
	<path class="st0" d="M74.8,76.3v-6.5h4.7v0.8h-3.8v2h3.6v0.8h-3.6v2.2h4v0.8H74.8z"/>
	<path class="st0" d="M80.8,76.3v-6.5H83c0.5,0,0.9,0,1.2,0.1c0.4,0.1,0.7,0.2,0.9,0.5c0.3,0.3,0.6,0.7,0.8,1.1
		c0.2,0.4,0.3,1,0.3,1.5c0,0.5-0.1,0.9-0.2,1.3c-0.1,0.4-0.3,0.7-0.4,0.9c-0.2,0.2-0.4,0.4-0.6,0.6s-0.5,0.3-0.8,0.3
		c-0.3,0.1-0.6,0.1-1,0.1H80.8z M81.6,75.6H83c0.4,0,0.8,0,1-0.1c0.2-0.1,0.4-0.2,0.6-0.3c0.2-0.2,0.4-0.5,0.5-0.8
		c0.1-0.3,0.2-0.8,0.2-1.2c0-0.7-0.1-1.2-0.3-1.6c-0.2-0.4-0.5-0.6-0.8-0.7c-0.2-0.1-0.6-0.1-1.1-0.1h-1.4V75.6z"/>
	<path class="st0" d="M94.4,74l0.9,0.2c-0.2,0.7-0.5,1.2-1,1.6s-1,0.6-1.7,0.6c-0.7,0-1.3-0.1-1.7-0.4c-0.4-0.3-0.8-0.7-1-1.2
		c-0.2-0.5-0.3-1.1-0.3-1.7c0-0.7,0.1-1.3,0.4-1.8c0.3-0.5,0.6-0.9,1.1-1.1c0.5-0.3,1-0.4,1.6-0.4c0.6,0,1.2,0.2,1.6,0.5
		c0.4,0.3,0.7,0.8,0.9,1.4l-0.8,0.2c-0.2-0.5-0.4-0.8-0.7-1c-0.3-0.2-0.6-0.3-1.1-0.3c-0.5,0-0.9,0.1-1.2,0.4
		c-0.3,0.2-0.6,0.6-0.7,1c-0.1,0.4-0.2,0.8-0.2,1.2c0,0.6,0.1,1,0.2,1.4c0.2,0.4,0.4,0.7,0.7,0.9c0.3,0.2,0.7,0.3,1.1,0.3
		c0.5,0,0.9-0.1,1.2-0.4C94.1,75,94.3,74.6,94.4,74z"/>
	<path class="st0" d="M96.4,76.3v-6.5h2.4c0.4,0,0.8,0,1,0.1c0.3,0.1,0.6,0.2,0.8,0.3c0.2,0.1,0.4,0.4,0.5,0.6
		c0.1,0.3,0.2,0.6,0.2,0.9c0,0.6-0.2,1-0.5,1.4c-0.4,0.4-1,0.6-1.9,0.6h-1.7v2.6H96.4z M97.2,72.9h1.7c0.6,0,0.9-0.1,1.2-0.3
		c0.2-0.2,0.3-0.5,0.3-0.9c0-0.3-0.1-0.5-0.2-0.7c-0.1-0.2-0.3-0.3-0.5-0.4c-0.1,0-0.4-0.1-0.8-0.1h-1.7V72.9z"/>
	<path class="st0" d="M101,76.3l2.5-6.5h0.9l2.6,6.5h-1l-0.8-2h-2.7l-0.7,2H101z M102.9,73.7h2.2l-0.7-1.8c-0.2-0.5-0.4-1-0.5-1.3
		c-0.1,0.4-0.2,0.8-0.3,1.2L102.9,73.7z"/>
	<path class="st0" d="M109.8,76.3v-6.5h4.4v0.8h-3.5v2h3v0.8h-3v2.9H109.8z"/>
	<path class="st0" d="M115.4,76.3v-6.5h0.9v6.5H115.4z"/>
	<path class="st0" d="M117.8,76.3v-6.5h2.9c0.6,0,1,0.1,1.3,0.2c0.3,0.1,0.5,0.3,0.7,0.6c0.2,0.3,0.3,0.6,0.3,1
		c0,0.5-0.1,0.8-0.4,1.2c-0.3,0.3-0.8,0.5-1.4,0.6c0.2,0.1,0.4,0.2,0.5,0.3c0.3,0.2,0.5,0.5,0.7,0.9l1.1,1.8h-1.1l-0.9-1.3
		c-0.3-0.4-0.5-0.7-0.6-0.9c-0.2-0.2-0.3-0.4-0.4-0.4c-0.1-0.1-0.3-0.1-0.4-0.2c-0.1,0-0.3,0-0.5,0h-1v2.9H117.8z M118.7,72.7h1.8
		c0.4,0,0.7,0,0.9-0.1c0.2-0.1,0.4-0.2,0.5-0.4c0.1-0.2,0.2-0.4,0.2-0.6c0-0.3-0.1-0.6-0.3-0.8c-0.2-0.2-0.6-0.3-1.1-0.3h-2V72.7z"
		/>
	<path class="st0" d="M124.3,76.3v-6.5h1.3l1.5,4.6c0.1,0.4,0.2,0.7,0.3,1c0.1-0.2,0.2-0.6,0.3-1l1.6-4.5h1.2v6.5h-0.8v-5.4
		l-1.9,5.4H127l-1.9-5.5v5.5H124.3z"/>
</g>
<g>
	<path class="st0" d="M16.3,86.9c0,0.1-0.1,0.4-0.3,0.7c-0.2,0.4-0.4,0.7-0.6,0.9c-0.2,0.2-0.4,0.5-0.6,0.7
		c-0.2,0.2-0.5,0.4-0.7,0.6c-0.2,0.2-0.5,0.4-0.8,0.6l-0.5-0.7c1.3-0.9,2.2-1.9,2.5-2.9h-2.2v-0.8h3.1V86.9z M21.1,91.9H13v-0.8h8.1
		V91.9z M21.2,89.7l-0.4,0.7c-1.5-0.7-2.6-1.6-3.2-2.7v1.9c0,0.3-0.1,0.5-0.2,0.7c-0.2,0.2-0.5,0.2-1,0.2c-0.2,0-0.5,0-0.8,0
		l-0.3-0.8c0.2,0,0.4,0,0.6,0c0.4,0,0.6,0,0.6-0.1c0.1,0,0.1-0.1,0.1-0.2V86c0.6-0.3,1.2-0.6,1.9-1h-4.7v-0.8h6.3v0.8
		c-0.8,0.6-1.6,1.1-2.5,1.5c0.2,0.4,0.4,0.8,0.7,1.1c0.6-0.5,1.2-1,1.6-1.5l0.7,0.5c-0.5,0.6-1.1,1.2-1.8,1.7
		C19.4,88.7,20.2,89.2,21.2,89.7z"/>
	<path class="st0" d="M32.1,91.3l-0.2,0.8c-0.4,0-0.8,0-1.2,0c-1.5,0-2.6,0-3.6-0.1c-0.9-0.1-1.7-0.6-2.3-1.4
		c-0.1,0.7-0.2,1.2-0.4,1.7l-0.7-0.5c0.3-1,0.5-2.3,0.6-3.8l0.8,0c0,0.4,0,0.9-0.1,1.3c0.2,0.4,0.4,0.7,0.7,1v-2.8h-1.9v-0.8h1.9v-1
		H24v-0.8h1.7v-1h0.8v1h1.3v0.8h-1.3v1H28v0.8h-1.5v1.1h1.3v0.8h-1.3v1.6c0.4,0.2,1.7,0.3,3.9,0.3C31,91.3,31.6,91.3,32.1,91.3z
		 M32,88.7c0,0.6-0.1,1.1-0.2,1.3c-0.1,0.3-0.3,0.4-0.5,0.5c-0.2,0.1-0.6,0.1-1.1,0.1c-0.4,0-0.7,0-1,0c-0.3,0-0.5-0.1-0.7-0.2
		c-0.1-0.1-0.2-0.3-0.2-0.5v-5.6h3.3v3.3h-2.5v2c0,0.1,0,0.1,0.1,0.2c0.1,0,0.3,0.1,0.8,0.1c0.5,0,0.8,0,0.9-0.1
		c0.1-0.1,0.2-0.2,0.2-0.4c0-0.2,0-0.5,0-0.9L32,88.7z M30.9,86.7V85h-1.7v1.7H30.9z"/>
	<path class="st0" d="M37.8,84.9h-0.4v7.3h-0.8v-1.5c-0.7,0.3-1.3,0.4-1.7,0.6l-0.3-0.7c0.2,0,0.4-0.1,0.6-0.2v-5.5h-0.4v-0.8h3.1
		V84.9z M36.6,86v-1.1h-0.7V86H36.6z M36.6,87.8v-1.1h-0.7v1.1H36.6z M36.6,89.8v-1.3h-0.7v1.5C36.2,90,36.5,89.9,36.6,89.8z
		 M40.2,85c-0.5,1.1-1.1,1.9-1.6,2.4c0.3,0,0.5-0.1,0.7-0.2c0-0.1-0.1-0.2-0.1-0.3l0.6-0.2c0.2,0.5,0.4,0.9,0.4,1.2l-0.6,0.2
		c0-0.1,0-0.2-0.1-0.3c-0.4,0.1-0.9,0.2-1.7,0.3l-0.2-0.6c0.5-0.4,0.9-0.9,1.2-1.4c-0.5,0.1-0.8,0.1-1,0.2l-0.1-0.7
		c0.4-0.5,0.8-1.1,1-1.9l0.7,0.3c-0.1,0.4-0.4,0.9-0.8,1.5c0.1,0,0.3-0.1,0.6-0.1c0.1-0.2,0.2-0.4,0.3-0.7L40.2,85z M40,90.3
		c0,0.4-0.2,0.8-0.5,1.1c-0.3,0.4-0.7,0.7-1.2,0.9l-0.6-0.7c0.7-0.3,1.2-0.6,1.3-1.1h-1.3v-1.9h0.8v1.2h0.7v-1.4H40V90.3z M43,88
		l-0.6,0.2l-0.1-0.4c-0.7,0.2-1.3,0.3-1.8,0.4l-0.1-0.6c0.5-0.4,0.8-0.9,1.1-1.4l-1.1,0.2l-0.1-0.6c0.4-0.5,0.8-1.2,1-2l0.7,0.2
		c-0.2,0.5-0.4,1.1-0.8,1.6c0.1,0,0.4-0.1,0.7-0.2c0.1-0.2,0.2-0.4,0.3-0.7l0.7,0.3c-0.4,0.9-0.9,1.7-1.6,2.3c0.2,0,0.5-0.1,0.7-0.2
		C42,87.1,42,87,41.9,86.9l0.6-0.2C42.7,87.1,42.9,87.5,43,88z M42.7,90.7h-1.4v1.5h-0.8v-3.8h0.8v1.5H42v-1.3h0.8V90.7z"/>
	<path class="st0" d="M54.1,86.5l-0.5,0.7c-1.5-0.7-2.8-1.5-3.8-2.3c-0.9,0.8-2.2,1.5-3.6,2.3l-0.6-0.7c1.8-0.8,3.1-1.7,4.1-2.7
		l0.9,0.3c-0.1,0.1-0.1,0.1-0.2,0.2C51.3,85.1,52.5,85.8,54.1,86.5z M52.9,92.2H52v-0.5h-4.4v0.5h-0.9v-3.9h6.2V92.2z M52,90.9v-1.7
		h-4.4v1.7H52z M52,87.3h-4.3v-0.8H52V87.3z"/>
	<path class="st0" d="M65,85.6l-0.3,0.8c-0.8-0.2-1.6-0.5-2.4-0.8v0.4h-3.1v-0.4c-0.7,0.3-1.5,0.6-2.3,0.8l-0.4-0.7
		c1.9-0.5,3.3-1.1,4.1-1.9l0.9,0.2c-0.1,0.1-0.1,0.1-0.2,0.2C62.2,84.8,63.4,85.2,65,85.6z M64.1,88.7h-6.8v-2.5h6.8V88.7z
		 M63.7,92.2h-0.8v-0.3h-4.3v0.3h-0.9v-3h6V92.2z M60.3,88.1v-1.1h-2.1v1.1H60.3z M59.9,87.6L59.3,88c-0.2-0.2-0.5-0.4-0.8-0.6
		l0.6-0.4C59.3,87.1,59.5,87.3,59.9,87.6z M62.9,90.2v-0.4h-4.3v0.4H62.9z M62.9,91.2v-0.4h-4.3v0.4H62.9z M61.6,85.2
		c-0.5-0.3-0.8-0.5-0.9-0.5c-0.3,0.2-0.6,0.4-0.9,0.5H61.6z M63.3,88.1v-1.1h-2.1v1.1H63.3z M62.9,87.4c-0.2,0.2-0.5,0.4-0.8,0.6
		l-0.6-0.4c0.4-0.2,0.6-0.4,0.8-0.5L62.9,87.4z"/>
	<path class="st0" d="M71.4,85.5h-4v-0.8H69c-0.1-0.3-0.2-0.5-0.4-0.8l0.9-0.2c0.1,0.3,0.3,0.6,0.4,0.9h1.4V85.5z M71,86.9h-3.2
		v-0.8H71V86.9z M71,88.3h-3.2v-0.8H71V88.3z M71,92.1h-0.8v-0.5h-1.5v0.6h-0.8v-3.3H71V92.1z M70.2,90.8v-1.1h-1.5v1.1H70.2z
		 M75.8,87.3H74v4.8h-0.9v-4.8h-1.7v-0.8h1.7v-2.6H74v2.6h1.7V87.3z"/>
	<path class="st0" d="M81.7,91.7h-2.3v0.5h-0.8v-7.3h0.9c0.2-0.4,0.3-0.7,0.4-1.1l0.8,0.2c-0.2,0.4-0.3,0.7-0.4,0.9h1v2.8h-2.1v1
		h2.3V91.7z M80.7,86.9v-1.2h-1.3v1.2H80.7z M81,90.9v-1.5h-1.5v1.5H81z M86.7,84.9h-1.9v1.1h1.6v4.8c0,0.3-0.1,0.5-0.2,0.6
		c-0.1,0.2-0.5,0.2-1.1,0.2l-0.2-0.8c0.1,0,0.2,0,0.5,0c0.1,0,0.2-0.1,0.2-0.2v-3.8h-0.8v5.5h-0.8v-5.5h-0.8v4.8h-0.8v-5.6h1.6v-1.1
		h-2v-0.8h4.7V84.9z"/>
	<path class="st0" d="M97.6,89.7H97v1.2h-3.1v0.6c0,0.2-0.1,0.3-0.2,0.5c-0.1,0.1-0.3,0.2-0.4,0.2c-0.2,0-0.6,0-1.4,0l-0.3-0.7
		l1.3,0c0,0,0.1,0,0.1-0.1c0,0,0.1-0.1,0.1-0.1v-0.4h-3.1v-0.6h3.1v-0.6h-3.7V89h3.7v-0.5h-3.1v-0.6h3.1v-0.5h-3v-1.8h3v-0.5h-3.6
		v-0.7h3.6v-0.5h0.8v0.5h3.6v0.7h-3.6v0.5h3v1.8h-3v0.5H97V89h0.7V89.7z M93.1,86.7v-0.6H91v0.6H93.1z M96,86.7v-0.6h-2.1v0.6H96z
		 M96.1,89v-0.5h-2.2V89H96.1z M96.1,90.2v-0.6h-2.2v0.6H96.1z"/>
	<path class="st0" d="M104,86.8c-0.1,0.9-0.3,1.6-0.5,2.2l-0.7-0.2c0.2-0.4,0.3-0.8,0.4-1.2h-0.5v3.8c0,0.2-0.1,0.4-0.2,0.5
		s-0.2,0.2-0.3,0.3c-0.1,0-0.3,0.1-0.6,0.1c-0.1,0-0.3,0-0.5,0l-0.3-0.8c0.2,0,0.5,0,0.9,0c0.2,0,0.2-0.1,0.2-0.3v-2.2
		c-0.3,0.9-0.7,1.6-1.2,2.1l-0.5-0.8c0.6-0.6,1-1.5,1.5-2.6h-1.4v-0.8h1.8c-0.3-0.3-0.7-0.7-1.3-1.1l0.6-0.5
		c0.2,0.1,0.5,0.3,0.7,0.5c0.2-0.2,0.5-0.5,0.7-0.8h-2.2v-0.8h3.2v0.7c-0.2,0.4-0.6,0.9-1.1,1.4c0.1,0.1,0.1,0.1,0.2,0.3l-0.4,0.3
		H104z M108.2,89c-0.1,1.5-0.2,2.4-0.3,2.6c-0.1,0.2-0.2,0.3-0.4,0.5c-0.2,0.1-0.5,0.2-0.9,0.2c-0.1,0-0.3,0-0.5,0l-0.3-0.8
		c0.2,0,0.4,0,0.6,0c0.3,0,0.5,0,0.6-0.1c0.1-0.1,0.1-0.2,0.2-0.4c0.1-0.2,0.1-0.6,0.1-1.2H106c-0.1,0.5-0.4,1-0.9,1.5
		c-0.5,0.5-1,0.8-1.6,1l-0.5-0.7c1.2-0.4,1.9-1,2.1-1.8H104V89h1.4c0-0.3,0.1-0.6,0.1-0.7l0.8,0c0,0.1,0,0.3-0.1,0.7H108.2z
		 M108.6,87.7l-0.4,0.7c-0.8-0.2-1.5-0.5-2.1-0.9c-0.6,0.4-1.1,0.7-1.7,0.9l-0.4-0.7c0.5-0.1,1-0.4,1.5-0.7
		c-0.2-0.2-0.4-0.4-0.7-0.8l0.6-0.4c0.3,0.4,0.5,0.6,0.6,0.7c0.3-0.3,0.6-0.7,0.8-1.1h-1.6c-0.4,0.4-0.7,0.8-1,1.1l-0.6-0.6
		c0.6-0.6,1.2-1.3,1.8-2.2l0.8,0.3c-0.1,0.2-0.2,0.4-0.4,0.6h2.6v0.8h-0.7c-0.3,0.7-0.6,1.2-1,1.6C107.2,87.3,107.9,87.6,108.6,87.7
		z"/>
	<path class="st0" d="M115.2,84.5c-0.6,0.3-1.5,0.5-2.7,0.7V86h2.4v3.1h-2.4c0,1.3-0.3,2.4-0.7,3.2l-0.8-0.6c0.4-0.8,0.6-1.8,0.6-3
		v-4.1c1.1-0.1,2.1-0.4,3-0.8L115.2,84.5z M114.1,88.3v-1.5h-1.5v1.5H114.1z M119.5,84.6c-1,0.3-2,0.6-3.1,0.7v1.5h3.1v0.8h-0.9v4.6
		h-0.8v-4.6h-1.3c0.1,1.9-0.3,3.4-1.2,4.7l-0.7-0.7c0.4-0.5,0.6-1,0.8-1.6c0.2-0.6,0.3-1.4,0.3-2.4v-3c1.4-0.1,2.5-0.4,3.4-0.7
		L119.5,84.6z"/>
</g>
<rect x="0.7" y="83.2" class="st0" width="1.1" height="9.7"/>
<rect x="129.7" y="83.2" class="st0" width="1.1" height="9.7"/>
</svg>
