<?xml version="1.0" encoding="utf-8"?>
<!-- Generator: Adobe Illustrator 28.0.0, SVG Export Plug-In . SVG Version: 6.00 Build 0)  -->
<svg version="1.1" id="图层_1" xmlns="http://www.w3.org/2000/svg" xmlns:xlink="http://www.w3.org/1999/xlink" x="0px" y="0px"
	 viewBox="0 0 575.3 92.9" style="enable-background:new 0 0 575.3 92.9;" xml:space="preserve">
<style type="text/css">
	.st0{fill:#B57F63;}
</style>
<path class="st0" d="M103,69.7c-1.5,0-2.9-0.2-4.4-0.4c-2.8-0.4-5.5-1.2-8.1-2.3c-2.3-1-4.4-2.1-6.4-3.6c-1.4-1-2.7-2.1-3.9-3.2
	c-5.2-4.9-8.7-10.8-10.1-17.8c-2.1-10.1-0.2-19.5,5.8-28c2.9-4.1,6.5-7.4,10.9-9.9c3.7-2.1,7.7-3.5,11.9-4.2c1-0.1,2-0.3,3-0.4
	c0.5-0.1,0.9,0,1.4-0.1c0.4,0,0.7,0,1.1,0c-0.1,0.3,0,0.5,0,0.8c0,4.8,0,9.7,0,14.5c0,0.5-0.1,0.7-0.7,0.7c-1.5,0.1-3,0.2-4.6,0.8
	c-2.3,0.8-4.4,1.8-6.3,3.3c-3.1,2.5-5.3,5.6-6.5,9.4c-0.7,2.2-0.9,4.4-0.8,6.6c0.2,2.3,0.7,4.5,1.7,6.7c1.9,4.2,5,7.4,9.2,9.4
	c1.9,0.9,3.9,1.4,6,1.6c2.9,0.3,5.7,0,8.5-1c2-0.8,3.9-1.9,5.5-3.3c2.3-1.9,3.9-4.2,5.1-6.8c0.7-1.6,1.2-3.2,1.4-4.9
	c0.1-0.8,0.2-1.6,0.2-2.4c0-0.7,0.6-0.2,0.9-0.3c0.2,0.1,0.4,0.1,0.6,0.1c4.8,0,9.6,0,14.5,0c0.3,0.5,0.2,1,0.2,1.5
	c-0.2,3-0.6,6-1.5,8.9c-1.4,4.4-3.6,8.4-6.5,11.9c-3.4,4.1-7.5,7.3-12.3,9.6c-2.9,1.4-6,2.3-9.2,2.8c-1.2,0.2-2.3,0.3-3.6,0.4
	C105.2,69.6,104.1,69.7,103,69.7z"/>
<path class="st0" d="M58.7-0.3C61,0,63.3,0.3,65.6,1c4.5,1.3,8.5,3.5,12.2,6.3c0.5,0.4,0.6,0.6,0.1,1.1c-2.5,2.5-4.6,5.3-6.3,8.4
	c-0.6,1.1-1.2,2.3-1.7,3.6c-0.1,0.2-0.1,0.4-0.2,0.5c-0.2,0.3-0.4,0.5-0.8,0.1c-9-8.7-24-6.1-29.7,5.1c-5.8,11.4,1.2,24.9,13.2,27.1
	c6.2,1.2,11.7-0.5,16.4-4.7c0.6-0.5,0.6-0.5,0.9,0.2c1.9,4.8,4.8,8.9,8.4,12.6c0.2,0.2,0.3,0.3,0,0.6c-3.5,3-7.6,5.1-11.9,6.4
	c-2,0.6-4.1,1.1-6.3,1.3c-2,0.2-4,0.3-5.9,0.2c-1.5-0.1-3.1-0.3-4.6-0.6c-2-0.4-3.9-0.9-5.8-1.6c-2.2-0.8-4.3-1.9-6.3-3.1
	c-1.2-0.8-2.4-1.7-3.5-2.5c-0.4-0.3-0.8-0.6-1.2-1c-0.8-0.8-1.6-1.6-2.4-2.4c-1.5-1.6-2.8-3.4-4-5.3c-1.2-1.9-2.2-3.9-2.9-5.9
	c-0.7-1.8-1.3-3.7-1.6-5.6c-0.3-1.6-0.6-3.2-0.6-4.9c-0.1-1.3,0-2.6,0-3.9c0.1-3.4,0.8-6.7,1.9-9.8c1.5-4.3,3.7-8.1,6.8-11.5
	c3.3-3.7,7.2-6.6,11.8-8.7c3-1.4,6.2-2.3,9.6-2.7c0.6-0.1,1.2-0.2,1.9-0.3c0.6,0,1.1-0.1,1.6-0.1c0.9,0,1.7,0,2.6,0
	C57.6-0.4,58.1-0.3,58.7-0.3z"/>
<g>
	<path class="st0" d="M183.6,32.7c0,0.5-0.4,1.4-1.1,2.7c-0.7,1.3-1.4,2.5-2.1,3.4c-0.7,0.9-1.5,1.8-2.3,2.7
		c-0.8,0.8-1.7,1.7-2.6,2.4c-0.9,0.8-1.9,1.5-2.9,2.2l-2-2.6c5.1-3.4,8.2-7,9.5-10.8h-8.2v-3h11.7V32.7z M201.8,51.8h-30.7v-3.1
		h30.7V51.8z M202.4,43.5l-1.6,2.7c-5.8-2.6-9.8-6-12.1-10.1v7.3c0,1.1-0.3,2-0.9,2.6c-0.6,0.6-1.8,0.9-3.7,0.9
		c-0.8,0-1.7,0-2.9-0.1l-1-3.2c0.9,0,1.7,0.1,2.4,0.1c1.4,0,2.2-0.1,2.4-0.2c0.2-0.1,0.3-0.4,0.3-0.7V29.2c2.2-1,4.6-2.3,7.2-3.9
		h-18v-3.1h23.7v3.1c-3,2.1-6.2,4-9.5,5.7c0.8,1.6,1.6,3,2.6,4.3c2.4-1.8,4.5-3.8,6.2-5.9l2.6,2c-2,2.3-4.3,4.4-6.8,6.3
		C195.4,39.5,198.3,41.5,202.4,43.5z"/>
	<path class="st0" d="M243.8,49.3l-0.8,3.1c-1.5,0-3,0.1-4.6,0.1c-5.5,0-10-0.2-13.5-0.5s-6.3-2.2-8.6-5.4c-0.4,2.6-0.9,4.7-1.6,6.4
		l-2.7-1.7c1.2-3.9,1.9-8.6,2.1-14.3l3,0.1c0,1.7,0,3.3-0.2,5c0.6,1.4,1.5,2.6,2.7,3.7V34.9h-7.3V32h7.3v-3.9h-6.4v-2.9h6.4v-3.8h3
		v3.8h4.9v2.9h-4.9V32h5.6v2.9h-5.6v4h4.9v3h-4.9v6.2c1.5,0.9,6.5,1.3,14.8,1.3C239.5,49.4,241.6,49.4,243.8,49.3z M243.4,39.4
		c-0.1,2.4-0.3,4.1-0.8,5.1c-0.5,1-1,1.6-1.7,1.8c-0.7,0.2-2.1,0.3-4.3,0.3c-1.3,0-2.6,0-3.8-0.1c-1.2,0-2-0.3-2.5-0.7
		c-0.5-0.4-0.7-1.1-0.7-2V22.8h12.5v12.4h-9.5v7.7c0,0.3,0.1,0.6,0.4,0.7c0.3,0.1,1.3,0.2,3,0.2c1.9,0,3-0.1,3.4-0.3
		c0.4-0.2,0.6-0.7,0.7-1.6c0.1-0.9,0.2-2.1,0.2-3.6L243.4,39.4z M239,32.2v-6.5h-6.4v6.5H239z"/>
	<path class="st0" d="M265.4,25.1h-1.7v27.6h-2.9v-5.5c-2.8,1-5,1.7-6.6,2.2l-1.1-2.8c0.7-0.2,1.4-0.4,2.1-0.6V25.1h-1.7v-2.9h11.8
		V25.1z M260.8,29.2v-4.2h-2.6v4.2H260.8z M260.8,36.3v-4.3h-2.6v4.3H260.8z M260.8,43.9v-4.8h-2.6v5.7
		C259.3,44.5,260.2,44.1,260.8,43.9z M274.3,25.7c-1.9,4-4,7.1-6.2,9.2c1.1-0.2,2-0.4,2.7-0.6c-0.2-0.5-0.3-0.9-0.5-1.2l2.2-0.9
		c0.9,1.9,1.4,3.4,1.6,4.6l-2.3,0.9c0-0.3-0.1-0.8-0.3-1.3c-1.4,0.3-3.5,0.8-6.4,1.3l-0.6-2.2c1.8-1.6,3.3-3.4,4.4-5.4
		c-1.7,0.3-2.9,0.5-3.6,0.6l-0.5-2.5c1.5-1.8,2.9-4.2,4-7.3l2.5,1.1c-0.5,1.5-1.6,3.5-3.1,5.8c0.6-0.1,1.3-0.3,2.3-0.5
		c0.4-0.7,0.8-1.6,1.2-2.6L274.3,25.7z M273.8,45.6c0,1.4-0.6,2.8-1.8,4.3c-1.2,1.5-2.7,2.6-4.4,3.3l-2.2-2.5c2.7-1,4.4-2.4,5.1-4.2
		h-5v-7.4h2.9v4.5h2.5v-5.2h2.8V45.6z M285,36.9l-2.3,0.8l-0.5-1.5c-2.6,0.7-4.8,1.2-6.8,1.5l-0.5-2.1c1.7-1.6,3.2-3.3,4.3-5.3
		l-4,0.8l-0.5-2.1c1.6-2,2.9-4.6,4-7.7l2.5,0.9c-0.6,2-1.7,4-3.1,6c0.6-0.1,1.5-0.3,2.7-0.6c0.4-0.6,0.8-1.5,1.2-2.6l2.5,1
		c-1.4,3.3-3.4,6.3-5.9,8.9c0.8-0.1,1.7-0.4,2.8-0.8c-0.2-0.5-0.4-0.8-0.5-1.1l2.3-0.8C284,33.6,284.6,35.2,285,36.9z M284,47.2
		h-5.3v5.6h-2.9V38.4h2.9v5.8h2.4v-5.1h2.9V47.2z"/>
	<path class="st0" d="M327,31.3l-1.9,2.8c-5.7-2.6-10.5-5.6-14.4-8.8c-3.6,2.9-8.2,5.8-13.8,8.7l-2.2-2.6
		c6.8-3.1,11.9-6.5,15.4-10.2l3.4,1.2c-0.2,0.2-0.4,0.5-0.6,0.7C316.5,25.9,321.1,28.7,327,31.3z M322.5,52.9h-3.4v-1.8h-16.8v1.8
		h-3.4V38.3h23.6V52.9z M319.2,47.9v-6.5h-16.8v6.5H319.2z M319.1,34.5h-16.5v-3.1h16.5V34.5z"/>
	<path class="st0" d="M368.4,27.7l-1.3,2.8c-2.9-0.7-5.9-1.7-8.9-3v1.3h-11.8v-1.4c-2.8,1.2-5.7,2.3-8.8,3.1L336,28
		c7.1-1.8,12.3-4.2,15.7-7l3.5,0.9c-0.2,0.3-0.5,0.5-0.7,0.7C357.9,24.6,362.5,26.3,368.4,27.7z M365.1,39.7h-25.7v-9.3h25.7V39.7z
		 M363.5,52.8h-3.2v-1.3h-16.1v1.3h-3.3V41.2h22.6V52.8z M350.6,37.1v-4.2h-8.1v4.2H350.6z M349,35.4l-2.3,1.4
		c-0.9-0.7-1.9-1.4-3-2.1l2.2-1.5C346.7,33.6,347.7,34.3,349,35.4z M360.4,45.2v-1.5h-16.1v1.5H360.4z M360.4,49v-1.6h-16.1V49
		H360.4z M355.7,26.4c-1.9-1.1-3.1-1.7-3.5-2c-1,0.7-2.1,1.4-3.4,2H355.7z M361.9,37.1v-4.2h-8.1v4.2H361.9z M360.5,34.6
		c-0.8,0.7-1.8,1.4-3,2.1l-2.2-1.5c1.4-0.9,2.4-1.5,3-2L360.5,34.6z"/>
	<path class="st0" d="M392.8,27.5h-15v-2.8h5.9c-0.4-1-0.8-2-1.3-2.9l3.4-0.6c0.5,1,1.1,2.2,1.6,3.5h5.4V27.5z M391.1,32.8h-12V30
		h12V32.8z M391.1,38h-12v-2.8h12V38z M391.2,52.3h-3.1v-1.8h-5.6v2.3h-3.2V40.4h11.9V52.3z M388.1,47.7v-4.3h-5.6v4.3H388.1z
		 M409.3,34.5h-6.6v18.3h-3.3V34.5H393v-3.2h6.4v-9.9h3.3v9.9h6.6V34.5z"/>
	<path class="st0" d="M432,50.9h-8.7v1.9h-2.9V25.1h3.3c0.7-1.4,1.3-2.7,1.7-4l3.2,0.6c-0.6,1.5-1,2.7-1.4,3.4h4v10.6h-7.9v3.7h8.7
		V50.9z M428.2,32.8V28h-4.9v4.7H428.2z M429,48v-5.7h-5.7V48H429z M450.7,25.1h-7.3v4h6.1v18c0,1-0.3,1.8-0.8,2.4
		c-0.5,0.6-1.9,0.8-4.1,0.7l-0.6-3.1c0.3,0,0.9,0.1,1.9,0.1c0.5,0,0.7-0.2,0.7-0.7V32.1h-3v20.7h-3.1V32.1h-3v18.4h-3V29.1h6v-4
		h-7.5v-3h17.9V25.1z"/>
	<path class="st0" d="M492.2,43.3h-2.5v4.6h-11.6v2.2c0,0.7-0.2,1.3-0.7,1.8c-0.5,0.5-1,0.8-1.6,0.9c-0.6,0.1-2.4,0.1-5.4,0.1
		l-1-2.7l4.8-0.1c0.1,0,0.3-0.1,0.4-0.2c0.1-0.1,0.2-0.3,0.2-0.4v-1.5h-11.9v-2.4h11.9v-2.2h-14.1v-2.4h14.1v-2h-11.9v-2.4h11.9
		v-1.9h-11.2v-6.7h11.2v-2h-13.8v-2.5h13.8v-2h3.2v2h13.7v2.5h-13.7v2h11.3v6.7h-11.3v1.9h11.6v4.4h2.5V43.3z M474.9,32.2v-2.1h-8
		v2.1H474.9z M486.1,32.2v-2.1h-8v2.1H486.1z M486.5,40.8v-2h-8.4v2H486.5z M486.5,45.4v-2.2h-8.4v2.2H486.5z"/>
	<path class="st0" d="M516.4,32.4c-0.4,3.5-1.1,6.2-1.9,8.3l-2.5-0.7c0.6-1.6,1.1-3.2,1.3-4.7h-2v14.3c0,0.7-0.2,1.3-0.6,1.8
		c-0.4,0.5-0.8,0.8-1.3,1c-0.5,0.2-1.3,0.3-2.4,0.3c-0.5,0-1.2,0-1.8-0.1l-1-3.1c0.7,0,1.8,0.1,3.3,0.1c0.6,0,0.9-0.4,0.9-1.1v-8.3
		c-1.3,3.2-2.8,5.9-4.6,8l-1.8-3c2.1-2.3,3.9-5.6,5.6-9.9h-5.3v-2.9h7c-1-1.2-2.7-2.6-4.9-4.1l2.2-2.1c0.8,0.4,1.7,1.1,2.8,1.9
		c0.8-0.9,1.7-2,2.6-3.2h-8.5v-3h12.3v2.7c-0.9,1.6-2.2,3.4-4,5.4c0.2,0.2,0.5,0.5,0.8,0.9l-1.5,1.3H516.4z M532.1,40.6
		c-0.4,5.9-0.8,9.2-1.1,9.8c-0.3,0.7-0.8,1.3-1.4,1.7c-0.6,0.5-1.8,0.7-3.5,0.7c-0.5,0-1.1,0-1.7-0.1l-1.1-3c0.6,0,1.4,0.1,2.2,0.1
		c1.1,0,1.8-0.1,2.1-0.3c0.3-0.2,0.6-0.7,0.8-1.5c0.2-0.8,0.4-2.3,0.5-4.5h-4.7c-0.4,2-1.5,3.8-3.2,5.6c-1.7,1.7-3.8,3-6.1,3.9
		l-2-2.6c4.4-1.7,7.1-4,8-6.9h-4.6v-3h5.3c0.2-1.2,0.3-2.2,0.3-2.8l3.1,0.2c0,0.4-0.1,1.3-0.2,2.7H532.1z M534,35.9l-1.4,2.7
		c-3.2-0.7-5.8-1.9-8-3.5c-2.1,1.4-4.3,2.5-6.4,3.3l-1.7-2.7c2-0.6,3.9-1.4,5.7-2.6c-0.7-0.6-1.5-1.6-2.5-2.9l2.4-1.7
		c1.1,1.3,1.9,2.3,2.4,2.7c1.2-1.3,2.2-2.7,2.9-4.2h-6.2c-1.4,1.7-2.7,3.1-4,4.3l-2.2-2.1c2.4-2.1,4.7-4.9,6.8-8.4l2.9,1
		c-0.3,0.6-0.8,1.3-1.4,2.2h9.9v2.9h-2.7c-1,2.6-2.2,4.5-3.7,5.9C528.6,34.4,531.1,35.4,534,35.9z"/>
	<path class="st0" d="M558.9,23.8c-2.2,1.1-5.6,1.9-10.2,2.7v3h9.1v11.8h-9.1c-0.2,5.1-1,9-2.5,12l-2.9-2.3
		c1.5-2.8,2.2-6.7,2.2-11.4V23.9c4.1-0.4,8-1.4,11.6-2.8L558.9,23.8z M554.5,38.1v-5.5h-5.8v5.5H554.5z M575,23.9
		c-3.8,1.3-7.7,2.2-11.6,2.6v5.6H575v3.2h-3.5v17.5h-3.1V35.3h-5c0.3,7.1-1.3,13.1-4.6,17.9l-2.7-2.7c1.4-1.9,2.4-4,3.1-6.2
		c0.7-2.2,1-5.3,1-9.2V23.7c5.1-0.4,9.5-1.4,13-2.7L575,23.9z"/>
</g>
<g>
	<path class="st0" d="M6.4,89l1.1,0.3c-0.2,0.9-0.6,1.5-1.2,2C5.7,91.8,5,92,4.1,92c-0.9,0-1.6-0.2-2.1-0.5c-0.5-0.4-1-0.9-1.2-1.5
		s-0.4-1.4-0.4-2.2c0-0.8,0.2-1.6,0.5-2.2c0.3-0.6,0.8-1.1,1.4-1.4c0.6-0.3,1.2-0.5,2-0.5c0.8,0,1.5,0.2,2,0.6s0.9,1,1.2,1.7
		l-1.1,0.2c-0.2-0.6-0.5-1-0.8-1.3c-0.4-0.3-0.8-0.4-1.3-0.4c-0.6,0-1.1,0.1-1.6,0.4c-0.4,0.3-0.7,0.7-0.9,1.2
		c-0.2,0.5-0.3,1-0.3,1.5c0,0.7,0.1,1.3,0.3,1.8c0.2,0.5,0.5,0.9,0.9,1.1C3.1,91,3.6,91.1,4,91.1c0.6,0,1.1-0.2,1.5-0.5
		C6,90.2,6.3,89.7,6.4,89z"/>
	<path class="st0" d="M8.8,91.9v-8.1h1.1v3.3h4.2v-3.3h1.1v8.1h-1.1v-3.8H9.9v3.8H8.8z"/>
	<path class="st0" d="M17,91.9v-8.1h5.8v1H18v2.5h4.5v0.9H18v2.7h5v1H17z"/>
	<path class="st0" d="M24.4,91.9v-8.1h1.1l4.2,6.3v-6.3h1v8.1h-1.1l-4.2-6.3v6.3H24.4z"/>
	<path class="st0" d="M36.4,88.7v-0.9l3.4,0v3c-0.5,0.4-1.1,0.7-1.6,0.9C37.6,91.9,37,92,36.5,92c-0.8,0-1.5-0.2-2.2-0.5
		c-0.6-0.3-1.1-0.8-1.5-1.5c-0.3-0.6-0.5-1.4-0.5-2.2c0-0.8,0.2-1.5,0.5-2.2c0.3-0.7,0.8-1.2,1.4-1.5c0.6-0.3,1.3-0.5,2.1-0.5
		c0.6,0,1.1,0.1,1.6,0.3c0.5,0.2,0.8,0.5,1.1,0.8c0.3,0.3,0.5,0.8,0.6,1.3l-1,0.3c-0.1-0.4-0.3-0.7-0.5-1c-0.2-0.2-0.4-0.4-0.8-0.6
		c-0.3-0.1-0.7-0.2-1.1-0.2c-0.5,0-0.9,0.1-1.3,0.2c-0.4,0.1-0.6,0.3-0.9,0.6c-0.2,0.2-0.4,0.5-0.5,0.8c-0.2,0.5-0.3,1-0.3,1.6
		c0,0.7,0.1,1.3,0.4,1.8c0.2,0.5,0.6,0.8,1.1,1.1c0.5,0.2,1,0.4,1.5,0.4c0.5,0,0.9-0.1,1.4-0.3c0.4-0.2,0.8-0.4,1-0.6v-1.5H36.4z"/>
	<path class="st0" d="M50.3,89l1.1,0.3c-0.2,0.9-0.6,1.5-1.2,2C49.5,91.8,48.8,92,48,92c-0.9,0-1.6-0.2-2.1-0.5
		c-0.5-0.4-1-0.9-1.2-1.5s-0.4-1.4-0.4-2.2c0-0.8,0.2-1.6,0.5-2.2c0.3-0.6,0.8-1.1,1.4-1.4c0.6-0.3,1.2-0.5,2-0.5
		c0.8,0,1.5,0.2,2,0.6c0.6,0.4,0.9,1,1.2,1.7l-1.1,0.2c-0.2-0.6-0.5-1-0.8-1.3c-0.4-0.3-0.8-0.4-1.3-0.4c-0.6,0-1.1,0.1-1.6,0.4
		c-0.4,0.3-0.7,0.7-0.9,1.2c-0.2,0.5-0.3,1-0.3,1.5c0,0.7,0.1,1.3,0.3,1.8c0.2,0.5,0.5,0.9,0.9,1.1c0.4,0.3,0.9,0.4,1.4,0.4
		c0.6,0,1.1-0.2,1.5-0.5C49.8,90.2,50.1,89.7,50.3,89z"/>
	<path class="st0" d="M52.7,91.9v-8.1h1.1v3.3h4.2v-3.3H59v8.1h-1.1v-3.8h-4.2v3.8H52.7z"/>
	<path class="st0" d="M61,91.9v-8.1H62v8.1H61z"/>
	<path class="st0" d="M72.4,83.8h1.1v4.7c0,0.8-0.1,1.5-0.3,1.9c-0.2,0.5-0.5,0.9-1,1.2c-0.5,0.3-1.1,0.4-1.9,0.4
		c-0.8,0-1.4-0.1-1.9-0.4c-0.5-0.3-0.8-0.6-1-1.1c-0.2-0.5-0.3-1.2-0.3-2v-4.7h1.1v4.7c0,0.7,0.1,1.2,0.2,1.5
		c0.1,0.3,0.4,0.6,0.7,0.8c0.3,0.2,0.7,0.3,1.2,0.3c0.8,0,1.3-0.2,1.7-0.5c0.3-0.4,0.5-1,0.5-2.1V83.8z"/>
	<path class="st0" d="M75.2,91.9v-8.1h1.1l4.2,6.3v-6.3h1v8.1h-1.1l-4.2-6.3v6.3H75.2z"/>
	<path class="st0" d="M83.5,91.9v-8.1h1.1v8.1H83.5z"/>
	<path class="st0" d="M88.5,91.9v-7.1h-2.7v-1h6.4v1h-2.7v7.1H88.5z"/>
	<path class="st0" d="M93.4,91.9v-8.1h5.8v1h-4.8v2.5h4.5v0.9h-4.5v2.7h5v1H93.4z"/>
	<path class="st0" d="M100.9,91.9v-8.1h2.8c0.6,0,1.1,0,1.4,0.1c0.5,0.1,0.9,0.3,1.2,0.6c0.4,0.4,0.7,0.8,1,1.4
		c0.2,0.6,0.3,1.2,0.3,1.9c0,0.6-0.1,1.2-0.2,1.6c-0.1,0.5-0.3,0.9-0.6,1.2c-0.2,0.3-0.5,0.6-0.7,0.7c-0.3,0.2-0.6,0.3-1,0.4
		s-0.8,0.1-1.3,0.1H100.9z M102,90.9h1.7c0.5,0,1,0,1.3-0.1c0.3-0.1,0.5-0.2,0.7-0.4c0.3-0.3,0.5-0.6,0.6-1c0.1-0.4,0.2-0.9,0.2-1.6
		c0-0.8-0.1-1.5-0.4-1.9c-0.3-0.5-0.6-0.8-1-0.9c-0.3-0.1-0.7-0.2-1.4-0.2H102V90.9z"/>
	<path class="st0" d="M117.9,89l1.1,0.3c-0.2,0.9-0.6,1.5-1.2,2s-1.3,0.7-2.1,0.7c-0.9,0-1.6-0.2-2.1-0.5c-0.5-0.4-1-0.9-1.2-1.5
		c-0.3-0.7-0.4-1.4-0.4-2.2c0-0.8,0.2-1.6,0.5-2.2c0.3-0.6,0.8-1.1,1.4-1.4c0.6-0.3,1.2-0.5,2-0.5c0.8,0,1.5,0.2,2,0.6
		c0.6,0.4,0.9,1,1.2,1.7l-1.1,0.2c-0.2-0.6-0.5-1-0.8-1.3c-0.4-0.3-0.8-0.4-1.3-0.4c-0.6,0-1.1,0.1-1.6,0.4
		c-0.4,0.3-0.7,0.7-0.9,1.2c-0.2,0.5-0.3,1-0.3,1.5c0,0.7,0.1,1.3,0.3,1.8s0.5,0.9,0.9,1.1c0.4,0.3,0.9,0.4,1.4,0.4
		c0.6,0,1.1-0.2,1.5-0.5C117.5,90.2,117.8,89.7,117.9,89z"/>
	<path class="st0" d="M120.3,91.9v-8.1h3c0.5,0,0.9,0,1.2,0.1c0.4,0.1,0.7,0.2,1,0.4c0.3,0.2,0.5,0.4,0.6,0.8
		c0.2,0.3,0.2,0.7,0.2,1.1c0,0.7-0.2,1.3-0.7,1.7c-0.4,0.5-1.2,0.7-2.4,0.7h-2.1v3.3H120.3z M121.4,87.6h2.1c0.7,0,1.2-0.1,1.5-0.4
		c0.3-0.3,0.4-0.6,0.4-1.1c0-0.3-0.1-0.6-0.3-0.9c-0.2-0.2-0.4-0.4-0.7-0.5c-0.2,0-0.5-0.1-1-0.1h-2.1V87.6z"/>
	<path class="st0" d="M126.1,91.9l3.1-8.1h1.2l3.3,8.1h-1.2l-0.9-2.4h-3.4l-0.9,2.4H126.1z M128.4,88.5h2.7l-0.8-2.2
		c-0.3-0.7-0.4-1.2-0.6-1.7c-0.1,0.5-0.2,1-0.4,1.5L128.4,88.5z"/>
	<path class="st0" d="M137.1,91.9v-8.1h5.4v1h-4.4v2.5h3.8v1h-3.8v3.7H137.1z"/>
	<path class="st0" d="M144.1,91.9v-8.1h1.1v8.1H144.1z"/>
	<path class="st0" d="M147.1,91.9v-8.1h3.6c0.7,0,1.3,0.1,1.6,0.2c0.4,0.1,0.7,0.4,0.9,0.8c0.2,0.4,0.3,0.8,0.3,1.2
		c0,0.6-0.2,1.1-0.6,1.4c-0.4,0.4-0.9,0.6-1.7,0.7c0.3,0.1,0.5,0.3,0.6,0.4c0.3,0.3,0.6,0.6,0.9,1.1l1.4,2.2h-1.3l-1.1-1.7
		c-0.3-0.5-0.6-0.9-0.8-1.1c-0.2-0.3-0.4-0.4-0.5-0.5c-0.2-0.1-0.3-0.2-0.5-0.2c-0.1,0-0.3,0-0.6,0h-1.2v3.6H147.1z M148.1,87.4h2.3
		c0.5,0,0.9-0.1,1.1-0.2c0.3-0.1,0.5-0.3,0.6-0.5c0.1-0.2,0.2-0.5,0.2-0.7c0-0.4-0.1-0.7-0.4-0.9c-0.3-0.2-0.7-0.4-1.3-0.4h-2.6
		V87.4z"/>
	<path class="st0" d="M155.2,91.9v-8.1h1.6l1.9,5.7c0.2,0.5,0.3,0.9,0.4,1.2c0.1-0.3,0.2-0.7,0.4-1.3l1.9-5.6h1.4v8.1h-1v-6.8
		l-2.3,6.8h-1l-2.3-6.9v6.9H155.2z"/>
</g>
</svg>
