<?xml version="1.0" encoding="utf-8"?>
<!-- Generator: Adobe Illustrator 28.0.0, SVG Export Plug-In . SVG Version: 6.00 Build 0)  -->
<svg version="1.1" id="图层_1" xmlns="http://www.w3.org/2000/svg" xmlns:xlink="http://www.w3.org/1999/xlink" x="0px" y="0px"
	 viewBox="0 0 130.4 70.9" style="enable-background:new 0 0 130.4 70.9;" xml:space="preserve">
<style type="text/css">
	.st0{fill:url(#SVGID_1_);}
	.st1{fill:url(#SVGID_00000087414045123307455890000017191683358772368006_);}
</style>
<linearGradient id="SVGID_1_" gradientUnits="userSpaceOnUse" x1="65.826" y1="14.6994" x2="115.3477" y2="64.2211">
	<stop  offset="0" style="stop-color:#B88356"/>
	<stop  offset="1" style="stop-color:#A06C49"/>
</linearGradient>
<path class="st0" d="M92.9,70.7c-1.5,0-2.9-0.2-4.4-0.4c-2.8-0.4-5.5-1.2-8.1-2.3c-2.3-1-4.4-2.1-6.4-3.6c-1.4-1-2.7-2.1-3.9-3.2
	c-5.2-4.9-8.7-10.8-10.1-17.8c-2.1-10.1-0.2-19.5,5.8-28c2.9-4.1,6.5-7.4,10.9-9.9c3.7-2.1,7.7-3.5,11.9-4.2c1-0.1,2-0.3,3-0.4
	c0.5-0.1,0.9,0,1.4-0.1c0.4,0,0.7,0,1.1,0c-0.1,0.3,0,0.5,0,0.8c0,4.8,0,9.7,0,14.5c0,0.5-0.1,0.7-0.7,0.7c-1.5,0.1-3,0.2-4.6,0.8
	c-2.3,0.8-4.4,1.8-6.3,3.3c-3.1,2.5-5.3,5.6-6.5,9.4c-0.7,2.2-0.9,4.4-0.8,6.6c0.2,2.3,0.7,4.5,1.7,6.7c1.9,4.2,5,7.4,9.2,9.4
	c1.9,0.9,3.9,1.4,6,1.6c2.9,0.3,5.7,0,8.5-1c2-0.8,3.9-1.9,5.5-3.3c2.3-1.9,3.9-4.2,5.1-6.8c0.7-1.6,1.2-3.2,1.4-4.9
	c0.1-0.8,0.2-1.6,0.2-2.4c0-0.7,0.6-0.2,0.9-0.3c0.2,0.1,0.4,0.1,0.6,0.1c4.8,0,9.6,0,14.5,0c0.3,0.5,0.2,1,0.2,1.5
	c-0.2,3-0.6,6-1.5,8.9c-1.4,4.4-3.6,8.4-6.5,11.9c-3.4,4.1-7.5,7.3-12.3,9.6c-2.9,1.4-6,2.3-9.2,2.8c-1.2,0.2-2.3,0.3-3.6,0.4
	C95.1,70.6,94,70.7,92.9,70.7z"/>
<linearGradient id="SVGID_00000135653769074602444390000003021747377109240730_" gradientUnits="userSpaceOnUse" x1="20.979" y1="10.9747" x2="70.4717" y2="60.4674">
	<stop  offset="0" style="stop-color:#CF9A66"/>
	<stop  offset="1" style="stop-color:#AE7045"/>
</linearGradient>
<path style="fill:url(#SVGID_00000135653769074602444390000003021747377109240730_);" d="M48.6,0.7C50.9,1,53.2,1.3,55.5,2
	C60,3.3,64,5.5,67.7,8.3c0.5,0.4,0.6,0.6,0.1,1.1c-2.5,2.5-4.6,5.3-6.3,8.4c-0.6,1.1-1.2,2.3-1.7,3.6c-0.1,0.2-0.1,0.4-0.2,0.5
	c-0.2,0.3-0.4,0.5-0.8,0.1c-9-8.7-24-6.1-29.7,5.1C23.3,38.5,30.3,52,42.3,54.2c6.2,1.2,11.7-0.5,16.4-4.7c0.6-0.5,0.6-0.5,0.9,0.2
	c1.9,4.8,4.8,8.9,8.4,12.6c0.2,0.2,0.3,0.3,0,0.6c-3.5,3-7.6,5.1-11.9,6.4c-2,0.6-4.1,1.1-6.3,1.3c-2,0.2-4,0.3-5.9,0.2
	c-1.5-0.1-3.1-0.3-4.6-0.6c-2-0.4-3.9-0.9-5.8-1.6c-2.2-0.8-4.3-1.9-6.3-3.1c-1.2-0.8-2.4-1.7-3.5-2.5c-0.4-0.3-0.8-0.6-1.2-1
	c-0.8-0.8-1.6-1.6-2.4-2.4c-1.5-1.6-2.8-3.4-4-5.3c-1.2-1.9-2.2-3.9-2.9-5.9c-0.7-1.8-1.3-3.7-1.6-5.6c-0.4-1.9-0.7-3.5-0.7-5.2
	c-0.1-1.3,0-2.6,0-3.9c0.1-3.4,0.8-6.7,1.9-9.8c1.5-4.3,3.7-8.1,6.8-11.5c3.3-3.7,7.2-6.6,11.8-8.7c3-1.4,6.2-2.3,9.6-2.7
	c0.6-0.1,1.2-0.2,1.9-0.3c0.6,0,1.1-0.1,1.6-0.1c0.9,0,1.7,0,2.6,0C47.5,0.6,48,0.7,48.6,0.7z"/>
</svg>
